<svg xmlns="http://www.w3.org/2000/svg"><symbol id="chevronRight" fill-rule="evenodd" viewBox="0 0 7 12"><path fill="currentColor" fill-rule="nonzero" d="M5.569 5.994 0 .726.687 0l6.336 5.994-6.335 6.002L0 11.27z"/></symbol><symbol id="walletFilled" fill-rule="evenodd" viewBox="0 0 24 24"><path fill="currentColor" fill-rule="nonzero" d="M22.005 6h-7a6 6 0 0 0 0 12h7v2a1 1 0 0 1-1 1h-18a1 1 0 0 1-1-1V4a1 1 0 0 1 1-1h18a1 1 0 0 1 1 1v2Zm-7 2h8v8h-8a4 4 0 1 1 0-8Zm0 3v2h3v-2h-3Z"/></symbol><symbol id="closeFilled" fill-rule="evenodd" viewBox="0 0 24 24"><path d="m12 10.586 4.95-4.95 1.415 1.415-4.95 4.95 4.95 4.95-1.415 1.414-4.95-4.95-4.95 4.95-1.413-1.415 4.95-4.95-4.95-4.95L7.05 5.638l4.95 4.95Z"/></symbol><symbol id="close" viewBox="0 0 24 24"><path d="m12 10.586 4.95-4.95 1.415 1.415-4.95 4.95 4.95 4.95-1.415 1.414-4.95-4.95-4.95 4.95-1.413-1.415 4.95-4.95-4.95-4.95L7.05 5.638l4.95 4.95Z"/></symbol><symbol id="verticalMore" fill-rule="evenodd" viewBox="0 0 24 24"><path fill="currentColor" fill-rule="nonzero" d="M12 3c-1.1 0-2 .9-2 2s.9 2 2 2 2-.9 2-2-.9-2-2-2Zm0 14c-1.1 0-2 .9-2 2s.9 2 2 2 2-.9 2-2-.9-2-2-2Zm0-7c-1.1 0-2 .9-2 2s.9 2 2 2 2-.9 2-2-.9-2-2-2Z"/></symbol><symbol id="chromeBrowser" fill-rule="evenodd" viewBox="0 0 24 24"><path fill="none" d="M0 0h24v24H0z"/><path d="M9.827 21.763C5.35 20.771 2 16.777 2 12c0-1.822.487-3.53 1.339-5.002l4.283 7.419a4.999 4.999 0 0 0 4.976 2.548l-2.77 4.798zM12 22l4.287-7.425A4.977 4.977 0 0 0 17 12a4.978 4.978 0 0 0-1-3h5.542A9.98 9.98 0 0 1 22 12c0 5.523-4.477 10-10 10zm2.572-8.455a2.999 2.999 0 0 1-5.17-.045l-.029-.05a3 3 0 1 1 5.225.05l-.026.045zm-9.94-8.306A9.974 9.974 0 0 1 12 2a9.996 9.996 0 0 1 8.662 5H12a5.001 5.001 0 0 0-4.599 3.035L4.632 5.239z"/></symbol><symbol id="copy" stroke="currentColor" fill="none" stroke-width="2" stroke-linecap="round" stroke-linejoin="round" viewBox="0 0 24 24"><rect x="9" y="9" width="13" height="13" rx="2" ry="2"/><path d="M5 15H4a2 2 0 0 1-2-2V4a2 2 0 0 1 2-2h9a2 2 0 0 1 2 2v1"/></symbol><symbol id="checkboxCircle" viewBox="0 0 24 24"><path fill="currentColor" d="M12 22C6.477 22 2 17.523 2 12S6.477 2 12 2s10 4.477 10 10-4.477 10-10 10Zm-.997-6 7.07-7.071-1.413-1.414-5.657 5.657-2.829-2.829-1.414 1.414L11.003 16Z"/></symbol><symbol id="arrowDownS" viewBox="0 0 24 24"><path fill="currentColor" d="m12 13.171 4.95-4.95 1.414 1.415L12 16 5.636 9.636 7.05 8.222l4.95 4.95Z"/></symbol><symbol id="arrowUpS" viewBox="0 0 24 24"><path d="m12 10.828-4.95 4.95-1.414-1.414L12 8l6.364 6.364-1.415 1.414-4.95-4.95Z"/></symbol><symbol id="add" viewBox="0 0 24 24"><path fill="currentColor" d="M11 11V5h2v6h6v2h-6v6h-2v-6H5v-2h6Z"/></symbol><symbol id="subtract" viewBox="0 0 24 24"><path fill="currentColor" d="M5 11v2h14v-2H5Z"/></symbol><symbol id="mobileWallet" viewBox="0 0 385 236"><g clip-path="url(#mobileWallet__path)"><path d="M78.65 46c62.65-61.31 164.22-61.31 226.87 0l7.54 7.38a7.74 7.74 0 0 1 2.349 5.55 7.722 7.722 0 0 1-2.349 5.55l-25.79 25.25a4.08 4.08 0 0 1-5.67 0l-10.38-10.16c-43.7-42.77-114.57-42.77-158.27 0l-11.11 10.88a4.089 4.089 0 0 1-5.68 0L70.37 65.2a7.727 7.727 0 0 1 0-11.1l8.28-8.1Zm280.21 52.21 23 22.46a7.755 7.755 0 0 1 1.735 8.57 7.755 7.755 0 0 1-1.735 2.54L278.31 233.06a8.152 8.152 0 0 1-11.34 0l-73.47-71.9a2.005 2.005 0 0 0-2.181-.434 2.005 2.005 0 0 0-.649.434l-73.46 71.9a8.16 8.16 0 0 1-11.35 0L2.35 131.75a7.73 7.73 0 0 1 0-11.1l23-22.46a8.13 8.13 0 0 1 11.34 0l73.47 71.89a1.989 1.989 0 0 0 1.415.587 1.995 1.995 0 0 0 1.415-.587l73.46-71.89a8.142 8.142 0 0 1 11.35 0l73.46 71.89a1.998 1.998 0 0 0 2.84 0l73.46-71.89a8.13 8.13 0 0 1 11.34 0l-.04.02Z" fill="#3396FF"/></g><defs><clipPath id="mobileWallet__path"><path fill="#fff" d="M0 0h384.17v235.35H0z"/></clipPath></defs></symbol><symbol id="mobileWalletCircle" viewBox="0 0 400 400"><clipPath id="mobileWalletCircle__path"><path d="M0 0h400v400H0z"/></clipPath><g clip-path="url(#mobileWalletCircle__path)"><circle cx="200" cy="200" fill="#3396ff" r="199.5" stroke="#66b1ff"/><path d="M122.519 148.965c42.791-41.729 112.171-41.729 154.962 0l5.15 5.022a5.248 5.248 0 0 1 0 7.555l-17.617 17.18a2.79 2.79 0 0 1-3.874 0l-7.087-6.911c-29.853-29.111-78.253-29.111-108.106 0l-7.59 7.401a2.79 2.79 0 0 1-3.874 0l-17.617-17.18a5.248 5.248 0 0 1 0-7.555zm191.397 35.529 15.679 15.29a5.248 5.248 0 0 1 0 7.555l-70.7 68.944c-2.139 2.087-5.608 2.087-7.748 0l-50.178-48.931a1.394 1.394 0 0 0-1.937 0l-50.178 48.931c-2.139 2.087-5.608 2.087-7.748 0l-70.701-68.945a5.249 5.249 0 0 1 0-7.555l15.679-15.29c2.14-2.086 5.609-2.086 7.748 0l50.179 48.932a1.394 1.394 0 0 0 1.937 0l50.177-48.932c2.139-2.087 5.608-2.087 7.748 0l50.179 48.932a1.394 1.394 0 0 0 1.937 0l50.179-48.931c2.139-2.087 5.608-2.087 7.748 0z" fill="#fff"/></g></symbol><symbol id="restart" viewBox="0 0 24 24"><path d="M18.537 19.567A9.961 9.961 0 0 1 12 22C6.477 22 2 17.523 2 12S6.477 2 12 2s10 4.477 10 10c0 2.136-.67 4.116-1.81 5.74L17 12h3a8 8 0 1 0-2.46 5.772l.997 1.795Z"/></symbol><symbol id="arrowLeftSLine" viewBox="0 0 24 24"><path d="m10.828 12 4.95 4.95-1.414 1.415L8 12l6.364-6.364 1.414 1.414-4.95 4.95Z"/></symbol><symbol id="arrowRightLine" viewBox="0 0 24 24"><path d="m16.172 11-5.364-5.364 1.414-1.414L20 12l-7.778 7.778-1.414-1.414L16.172 13H4v-2h12.172Z"/></symbol><symbol id="timeLine" viewBox="0 0 24 24"><path d="M12 22C6.477 22 2 17.523 2 12S6.477 2 12 2s10 4.477 10 10-4.477 10-10 10Zm0-2a8 8 0 1 0 0-16 8 8 0 0 0 0 16Zm1-8h4v2h-6V7h2v5Z"/></symbol><symbol id="jaggedCheck" viewBox="0 0 24 24"><path fill="currentColor" d="M20.5 10.25c0-1.43-.88-2.67-2.19-3.34.46-1.39.2-2.9-.81-3.91-1.01-1.01-2.52-1.27-3.91-.81C12.93.88 11.68 0 10.25 0S7.58.88 6.92 2.19C5.52 1.73 4.01 1.99 3 3c-1.01 1.01-1.26 2.52-.8 3.91C.89 7.58 0 8.82 0 10.25s.89 2.67 2.2 3.34c-.46 1.39-.21 2.9.8 3.91 1.01 1.01 2.52 1.26 3.91.81.67 1.31 1.91 2.19 3.34 2.19s2.68-.88 3.34-2.19c1.39.45 2.9.2 3.91-.81 1.01-1.01 1.27-2.52.81-3.91 1.31-.67 2.19-1.91 2.19-3.34Zm-11.71 4.2-3.74-3.74 1.41-1.42 2.26 2.26 4.8-5.23 1.47 1.36-6.2 6.77Z"/></symbol><symbol id="priceTagLine" viewBox="0 0 24 24"><path d="m10.904 2.1 9.9 1.414 1.414 9.9-9.193 9.192a1 1 0 0 1-1.414 0l-9.9-9.9a1 1 0 0 1 0-1.413L10.905 2.1Zm.707 2.121L3.833 12l8.485 8.485 7.779-7.778-1.061-7.425-7.425-1.06Zm2.122 6.364a2 2 0 1 1 2.828-2.828 2 2 0 0 1-2.828 2.828Z"/></symbol><symbol id="sendLine" viewBox="0 0 24 24"><path d="m21.726 2.957-5.453 19.086c-.15.529-.475.553-.717.07L11 13 1.923 9.37c-.51-.205-.504-.51.034-.689L21.043 2.32c.528-.176.832.12.683.638Zm-2.69 2.14L6.811 9.17l5.637 2.255 3.04 6.081 3.546-12.41Z"/></symbol><symbol id="fireLine" viewBox="0 0 24 24"><path d="M12 23a7.5 7.5 0 0 0 7.5-7.5c0-.866-.23-1.697-.5-2.47-1.667 1.647-2.933 2.47-3.8 2.47 3.995-7 1.8-10-4.2-14 .5 5-2.796 7.274-4.138 8.537A7.5 7.5 0 0 0 12 23Zm.71-17.765c3.241 2.75 3.257 4.887.753 9.274-.761 1.333.202 2.991 1.737 2.991.688 0 1.384-.2 2.119-.595a5.5 5.5 0 1 1-9.087-5.412c.126-.118.765-.685.793-.71.424-.38.773-.717 1.118-1.086 1.23-1.318 2.114-2.78 2.566-4.462Z"/></symbol><symbol id="uploadLine" viewBox="0 0 24 24"><path d="M4 19h16v-7h2v8a1 1 0 0 1-1 1H3a1 1 0 0 1-1-1v-8h2v7Zm9-10v7h-2V9H6l6-6 6 6h-5Z"/></symbol><symbol id="coinsLine" viewBox="0 0 24 24"><path fill="currentColor" d="M14.005 2.003a8 8 0 0 1 3.292 15.293A8 8 0 1 1 6.711 6.71a8.003 8.003 0 0 1 7.294-4.707Zm-4 6a6 6 0 1 0 0 12 6 6 0 0 0 0-12Zm1 1v1h2v2h-4a.5.5 0 0 0-.09.992l.09.008h2a2.5 2.5 0 0 1 0 5v1h-2v-1h-2v-2h4a.5.5 0 0 0 .09-.992l-.09-.008h-2a2.5 2.5 0 0 1 0-5v-1h2Zm3-5A5.985 5.985 0 0 0 9.52 6.016a8 8 0 0 1 8.47 8.471 6 6 0 0 0-3.986-10.484Z"/></symbol><symbol id="shoppingBagLine" viewBox="0 0 24 24"><path d="M7.005 8V6a5 5 0 0 1 10 0v2h3a1 1 0 0 1 1 1v12a1 1 0 0 1-1 1h-16a1 1 0 0 1-1-1V9a1 1 0 0 1 1-1h3Zm0 2h-2v10h14V10h-2v2h-2v-2h-6v2h-2v-2Zm2-2h6V6a3 3 0 0 0-6 0v2Z"/></symbol><symbol id="informationLine" viewBox="0 0 24 24"><path fill="currentColor" d="M12 22C6.477 22 2 17.523 2 12S6.477 2 12 2s10 4.477 10 10-4.477 10-10 10Zm0-2a8 8 0 1 0 0-16 8 8 0 0 0 0 16ZM11 7h2v2h-2V7Zm0 4h2v6h-2v-6Z"/></symbol><symbol id="arrowDownLine" viewBox="0 0 24 24"><path d="m13 16.172 5.364-5.364 1.414 1.414L12 20l-7.778-7.778 1.414-1.414L11 16.172V4h2v12.172Z"/></symbol><symbol id="arrowUpDownLine" viewBox="0 0 24 24"><path d="m11.95 7.95-1.414 1.414L8 6.828 8 20H6V6.828L3.466 9.364 2.05 7.95 7 3l4.95 4.95Zm10 8.1L17 21l-4.95-4.95 1.414-1.414 2.537 2.536L16 4h2v13.172l2.536-2.536 1.414 1.414Z"/></symbol><symbol id="arrowLeftRightLine" viewBox="0 0 24 24"><path d="M16.05 12.05 21 17l-4.95 4.95-1.414-1.415L17.172 18H4v-2h13.172l-2.536-2.535 1.414-1.414Zm-8.1-10 1.414 1.414-2.536 2.535H20v2H6.828l2.536 2.536L7.95 11.95 3 7l4.95-4.95Z"/></symbol><symbol id="settingFill" viewBox="0 0 24 24"><path d="M9.954 2.21a9.99 9.99 0 0 1 4.09-.002A3.993 3.993 0 0 0 16 5.07a3.992 3.992 0 0 0 3.457.261A9.988 9.988 0 0 1 21.5 8.877a3.992 3.992 0 0 0-1.5 3.122c0 1.264.586 2.391 1.501 3.124a10.042 10.042 0 0 1-2.045 3.543 3.992 3.992 0 0 0-3.456.261 3.993 3.993 0 0 0-1.955 2.86 9.99 9.99 0 0 1-4.09.004A3.993 3.993 0 0 0 8 18.927a3.992 3.992 0 0 0-3.457-.26A9.99 9.99 0 0 1 2.5 15.121 3.992 3.992 0 0 0 4 11.999c0-1.264-.587-2.39-1.502-3.124a10.043 10.043 0 0 1 2.045-3.542A3.993 3.993 0 0 0 8 5.07a3.993 3.993 0 0 0 1.954-2.86ZM12 15a3 3 0 1 0 0-6 3 3 0 0 0 0 6Z"/></symbol><symbol id="moonLine" viewBox="0 0 24 24"><path d="M10 7a7 7 0 0 0 12 4.9v.1c0 5.523-4.477 10-10 10S2 17.523 2 12 6.477 2 12 2h.1A6.98 6.98 0 0 0 10 7Zm-6 5a8 8 0 0 0 15.062 3.762A9 9 0 0 1 8.238 4.938 7.999 7.999 0 0 0 4 12Z"/></symbol><symbol id="sunLine" viewBox="0 0 24 24"><path d="M12 18a6 6 0 1 1 0-12 6 6 0 0 1 0 12Zm0-2a4 4 0 1 0 0-8 4 4 0 0 0 0 8ZM11 1h2v3h-2V1Zm0 19h2v3h-2v-3ZM3.515 4.929l1.414-1.414L7.05 5.636 5.636 7.05 3.515 4.93ZM16.95 18.364l1.414-1.414 2.121 2.121-1.414 1.414-2.121-2.121Zm2.121-14.85 1.414 1.415-2.121 2.121-1.414-1.414 2.121-2.121ZM5.636 16.95l1.414 1.414-2.121 2.121-1.414-1.414 2.121-2.121ZM23 11v2h-3v-2h3ZM4 11v2H1v-2h3Z"/></symbol><symbol id="arrowDropDown" viewBox="0 0 24 24"><path d="m12 13.171 4.95-4.95 1.414 1.415L12 16 5.636 9.636 7.05 8.222l4.95 4.95Z"/></symbol><symbol id="loaderLine" viewBox="0 0 24 24"><path d="M18.364 5.636 16.95 7.05A7 7 0 1 0 19 12h2a9 9 0 1 1-2.636-6.364Z"/></symbol><symbol id="errorWarningLine" viewBox="0 0 24 24"><path d="M12 22C6.477 22 2 17.523 2 12S6.477 2 12 2s10 4.477 10 10-4.477 10-10 10Zm0-2a8 8 0 1 0 0-16 8 8 0 0 0 0 16Zm-1-5h2v2h-2v-2Zm0-8h2v6h-2V7Z"/></symbol><symbol id="errorWarningFill" viewBox="0 0 24 24"><path d="M12 22C6.477 22 2 17.523 2 12S6.477 2 12 2s10 4.477 10 10-4.477 10-10 10Zm-1-7v2h2v-2h-2Zm0-8v6h2V7h-2Z"/></symbol><symbol id="checkLine" viewBox="0 0 24 24"><path d="m10 15.17 9.193-9.191 1.414 1.414-10.606 10.606-6.364-6.364 1.414-1.414 4.95 4.95Z"/></symbol><symbol id="checkFill" viewBox="0 0 24 24"><path d="m10 15.17 9.193-9.191 1.414 1.414-10.606 10.606-6.364-6.364 1.414-1.414 4.95 4.95Z"/></symbol><symbol id="informationLine" viewBox="0 0 24 24"><path d="M12 22C6.477 22 2 17.523 2 12S6.477 2 12 2s10 4.477 10 10-4.477 10-10 10Zm0-2a8 8 0 1 0 0-16 8 8 0 0 0 0 16ZM11 7h2v2h-2V7Zm0 4h2v6h-2v-6Z"/></symbol><symbol id="informationFill" viewBox="0 0 24 24"><path d="M12 22C6.477 22 2 17.523 2 12S6.477 2 12 2s10 4.477 10 10-4.477 10-10 10Zm-1-11v6h2v-6h-2Zm0-4v2h2V7h-2Z"/></symbol><symbol id="loaderFill" viewBox="0 0 24 24"><path d="M18.364 5.636 16.95 7.05A7 7 0 1 0 19 12h2a9 9 0 1 1-2.636-6.364Z"/></symbol><symbol id="pencilLine" viewBox="0 0 24 24"><path d="m15.728 9.576-1.414-1.414L5 17.476v1.414h1.414l9.314-9.314Zm1.414-1.414 1.414-1.414-1.414-1.414-1.414 1.414 1.414 1.414Zm-9.9 12.728H3v-4.243L16.435 3.212a1 1 0 0 1 1.414 0l2.829 2.829a1 1 0 0 1 0 1.414L7.243 20.89Z"/></symbol></svg>